ply
format ascii 1.0
comment Created by Blender 2.79 (sub 0) - www.blender.org, source file: 'untitled.blend'
element vertex 102
property float x
property float y
property float z
property float nx
property float ny
property float nz
element face 30
property list uchar uint vertex_indices
end_header
1.000000 1.000000 -1.000000 0.000000 0.000000 -1.000000
1.000000 -1.000000 -1.000000 0.000000 0.000000 -1.000000
-1.000000 -1.000000 -1.000000 0.000000 0.000000 -1.000000
-1.000000 1.000000 -1.000000 0.000000 0.000000 -1.000000
-1.000000 1.000000 1.000000 -0.953578 0.001892 0.301142
-1.000000 -1.000000 1.000000 -0.953578 0.001892 0.301142
0.014789 -0.891443 4.225253 -0.953578 0.001892 0.301142
0.024626 0.813387 4.233130 -0.953578 0.001892 0.301142
1.000000 1.000000 -1.000000 0.000000 1.000000 0.000000
1.000000 0.999999 1.000000 0.000000 1.000000 0.000000
3.956284 0.999999 1.000000 0.000000 1.000000 0.000000
3.956284 0.999999 -1.000000 0.000000 1.000000 0.000000
1.000000 -1.000000 -1.000000 -0.000000 -1.000000 -0.000000
0.999999 -1.000001 1.000000 -0.000000 -1.000000 -0.000000
-1.000000 -1.000000 1.000000 -0.000000 -1.000000 -0.000000
-1.000000 -1.000000 -1.000000 -0.000000 -1.000000 -0.000000
-1.000000 -1.000000 1.000000 -0.353903 -0.008993 0.935239
-1.000000 1.000000 1.000000 -0.353903 -0.008993 0.935239
-3.669926 0.003139 -0.000680 -0.353903 -0.008993 0.935239
-3.703303 0.001271 -0.032558 -0.353903 -0.008993 0.935239
-1.000000 1.000000 -1.000000 0.000000 1.000000 0.000000
-1.000000 1.000000 1.000000 0.000000 1.000000 0.000000
-3.714122 0.001270 -0.052799 -0.113369 0.991704 0.060583
-3.703303 0.001271 -0.032558 -0.113369 0.991704 0.060583
-3.669926 0.003139 -0.000680 -0.113369 0.991704 0.060583
-3.680744 0.003139 -0.020920 -0.113369 0.991704 0.060583
-1.000000 1.000000 1.000000 -0.349167 0.937059 0.001870
-1.000000 1.000000 -1.000000 -0.349167 0.937059 0.001870
-3.680744 0.003139 -0.020920 -0.349167 0.937059 0.001870
-3.669926 0.003139 -0.000680 -0.349167 0.937059 0.001870
-1.000000 1.000000 -1.000000 -0.336179 0.020599 -0.941573
-1.000000 -1.000000 -1.000000 -0.336179 0.020599 -0.941573
-3.714122 0.001270 -0.052799 -0.336179 0.020599 -0.941573
-3.680744 0.003139 -0.020920 -0.336179 0.020599 -0.941573
-1.000000 -1.000000 -1.000000 -0.346744 -0.937958 0.001857
-1.000000 -1.000000 1.000000 -0.346744 -0.937958 0.001857
-3.703303 0.001271 -0.032558 -0.346744 -0.937958 0.001857
-3.714122 0.001270 -0.052799 -0.346744 -0.937958 0.001857
0.416829 0.875830 4.314970 -0.199687 -0.004316 0.979850
0.024626 0.813387 4.233130 -0.199687 -0.004316 0.979850
0.014789 -0.891443 4.225253 -0.199687 -0.004316 0.979850
0.416838 -0.897259 4.305525 -0.199687 -0.004316 0.979850
1.000000 0.999999 1.000000 -0.027746 0.998401 0.049256
-1.000000 1.000000 1.000000 -0.027746 0.998401 0.049256
0.024626 0.813387 4.233130 -0.027746 0.998401 0.049256
0.416829 0.875830 4.314970 -0.027746 0.998401 0.049256
-1.000000 -1.000000 1.000000 -0.003508 -0.999463 0.032569
0.999999 -1.000001 1.000000 -0.003508 -0.999463 0.032569
0.416838 -0.897259 4.305525 -0.003508 -0.999463 0.032569
0.014789 -0.891443 4.225253 -0.003508 -0.999463 0.032569
0.999999 -1.000001 1.000000 0.984834 -0.000432 0.173497
1.000000 0.999999 1.000000 0.984834 -0.000432 0.173497
0.416829 0.875830 4.314970 0.984834 -0.000432 0.173497
0.416838 -0.897259 4.305525 0.984834 -0.000432 0.173497
3.956284 0.999999 1.000000 0.378823 0.010040 0.925415
3.956283 -1.000001 1.000000 0.378823 0.010040 0.925415
6.380644 0.165768 0.016627 0.378823 0.010040 0.925415
6.328004 0.186625 0.016249 0.378823 0.010040 0.925415
3.956284 0.999999 -1.000000 0.000000 0.000000 -1.000000
3.956284 -1.000001 -1.000000 0.000000 0.000000 -1.000000
3.956283 -1.000001 1.000000 -0.000000 -1.000000 0.000000
3.956283 -1.000001 1.861148 -0.000000 -1.000000 0.000000
0.999999 -1.000001 1.861148 -0.000000 -1.000000 0.000000
3.956284 -1.000001 -1.000000 -0.000000 -1.000000 -0.000000
6.362960 0.187803 -0.003927 0.300358 0.768289 0.565258
6.328004 0.186625 0.016249 0.300358 0.768289 0.565258
6.380644 0.165768 0.016627 0.300358 0.768289 0.565258
6.415601 0.166946 -0.003549 0.300358 0.768289 0.565258
3.956284 0.999999 -1.000000 0.322045 0.946705 0.006125
3.956284 0.999999 1.000000 0.322045 0.946705 0.006125
6.328004 0.186625 0.016249 0.322045 0.946705 0.006125
6.362960 0.187803 -0.003927 0.322045 0.946705 0.006125
3.956283 -1.000001 1.000000 0.430985 -0.902332 0.006931
3.956284 -1.000001 -1.000000 0.430985 -0.902332 0.006931
6.415601 0.166946 -0.003549 0.430985 -0.902332 0.006931
6.380644 0.165768 0.016627 0.430985 -0.902332 0.006931
3.956284 -1.000001 -1.000000 0.378318 0.009682 -0.925625
3.956284 0.999999 -1.000000 0.378318 0.009682 -0.925625
6.362960 0.187803 -0.003927 0.378318 0.009682 -0.925625
6.415601 0.166946 -0.003549 0.378318 0.009682 -0.925625
3.956284 0.999999 1.861148 0.000000 0.000000 0.000000
1.000000 0.999999 1.861148 0.000000 0.000000 0.000000
1.000000 0.999999 1.861148 0.000000 0.000000 0.000000
3.956284 0.999999 1.861148 0.000000 0.000000 0.000000
3.956283 -1.000001 1.000000 1.000000 -0.000001 0.000000
3.956284 0.999999 1.000000 1.000000 -0.000001 0.000000
3.956284 0.999999 1.861148 1.000000 -0.000001 0.000000
3.956283 -1.000001 1.861148 1.000000 -0.000001 0.000000
1.000000 0.999999 1.861148 0.000000 1.000000 0.000000
3.956284 0.999999 1.861148 0.000000 1.000000 0.000000
1.000000 0.999999 1.000000 -1.000000 0.000001 0.000000
0.999999 -1.000001 1.000000 -1.000000 0.000001 0.000000
0.999999 -1.000001 1.861148 -1.000000 0.000001 0.000000
1.000000 0.999999 1.861148 -1.000000 0.000001 0.000000
1.000000 0.999999 1.861148 -0.000000 0.000000 1.000000
0.999999 -1.000001 1.861148 -0.000000 0.000000 1.000000
3.956283 -1.000001 1.861148 -0.000000 0.000000 1.000000
3.956284 0.999999 1.861148 -0.000000 0.000000 1.000000
0.999999 -1.000001 1.861148 0.000000 0.000000 0.000000
0.999999 -1.000001 1.861148 0.000000 0.000000 0.000000
3.956283 -1.000001 1.861148 0.000000 0.000000 0.000000
3.956283 -1.000001 1.861148 0.000000 0.000000 0.000000
4 0 1 2 3
4 4 5 6 7
4 8 9 10 11
4 12 13 14 15
4 16 17 18 19
4 9 8 20 21
4 22 23 24 25
4 26 27 28 29
4 30 31 32 33
4 34 35 36 37
4 38 39 40 41
4 42 43 44 45
4 46 47 48 49
4 50 51 52 53
4 54 55 56 57
4 1 0 58 59
4 13 60 61 62
4 13 12 63 60
4 64 65 66 67
4 68 69 70 71
4 72 73 74 75
4 76 77 78 79
4 80 81 82 83
4 84 85 86 87
4 10 9 88 89
4 90 91 92 93
4 94 95 96 97
4 81 98 99 82
4 98 100 101 99
4 100 80 83 101
