ply
format ascii 1.0
comment Created by Blender 2.79 (sub 0) - www.blender.org, source file: ''
element vertex 319
property float x
property float y
property float z
property float nx
property float ny
property float nz
element face 104
property list uchar uint vertex_indices
end_header
-0.183334 0.072930 0.790967 0.000000 0.000000 0.000000
-0.183334 0.072930 0.790967 0.000000 0.000000 0.000000
0.946300 0.072930 0.448408 0.000000 0.000000 0.000000
0.946300 0.072930 0.448408 0.000000 0.000000 0.000000
-2.319147 -1.460191 0.414167 -0.000001 -1.000000 -0.000000
-0.763986 -1.460192 1.242486 -0.000001 -1.000000 -0.000000
-1.850578 -1.460192 3.282554 -0.000001 -1.000000 -0.000000
-3.405739 -1.460191 2.454236 -0.000001 -1.000000 -0.000000
-0.183334 0.072930 0.790967 0.613857 -0.000000 0.789417
-0.763985 0.072930 1.242486 0.613857 -0.000000 0.789417
-0.763986 -1.460192 1.242486 0.613857 -0.000000 0.789417
-0.183334 -1.460192 0.790967 0.613857 -0.000000 0.789417
-0.183334 -1.460192 0.790967 -0.000000 -1.000000 -0.000000
-0.763986 -1.460192 1.242486 -0.000000 -1.000000 -0.000000
-2.319147 -1.460191 0.414167 -0.000000 -1.000000 -0.000000
-2.377218 -1.460191 -0.332815 -0.000000 -1.000000 -0.000000
-2.377218 -1.460191 -0.332815 -0.996992 0.000000 0.077507
-2.319147 -1.460191 0.414167 -0.996992 0.000000 0.077507
-2.319147 0.072930 0.414168 -0.996992 0.000000 0.077507
-2.377217 0.072931 -0.332815 -0.996992 0.000000 0.077507
-0.763985 0.072930 1.242486 0.000000 1.000000 0.000000
-0.183334 0.072930 0.790967 0.000000 1.000000 0.000000
-2.377217 0.072931 -0.332815 0.000000 1.000000 0.000000
-2.319147 0.072930 0.414168 0.000000 1.000000 0.000000
-2.377218 -1.460191 -0.332815 -0.996783 0.000000 -0.080143
-2.377217 0.072931 -0.332815 -0.996783 0.000000 -0.080143
-2.312120 0.072930 -1.142466 -0.996783 0.000000 -0.080143
-2.312120 -1.460192 -1.142467 -0.996783 0.000000 -0.080143
-2.312120 -1.460192 -1.142467 -0.000000 -1.000000 0.000000
0.946300 -1.460192 0.448408 -0.000000 -1.000000 0.000000
0.946300 0.072930 0.448408 0.000000 1.000000 -0.000000
-2.312120 0.072930 -1.142466 0.000000 1.000000 -0.000000
-0.183334 -1.460192 0.790967 -0.290198 0.000000 -0.956967
-0.183334 0.072930 0.790967 -0.290198 0.000000 -0.956967
0.946300 0.072930 0.448408 -0.290198 0.000000 -0.956967
0.946300 -1.460192 0.448408 -0.290198 0.000000 -0.956967
-2.377217 0.072931 -0.332815 0.000000 0.000000 0.000000
-2.377217 0.072931 -0.332815 0.000000 0.000000 0.000000
-2.312120 0.072930 -1.142466 0.000000 0.000000 0.000000
-2.312120 0.072930 -1.142466 0.000000 0.000000 0.000000
-0.183334 -1.460192 0.790967 0.000000 0.000000 0.000000
-0.183334 -1.460192 0.790967 0.000000 0.000000 0.000000
0.946300 -1.460192 0.448408 0.000000 0.000000 0.000000
0.946300 -1.460192 0.448408 0.000000 0.000000 0.000000
1.454545 0.072930 0.170034 0.000000 1.000000 -0.000000
-2.075441 0.072930 -1.627231 0.000000 1.000000 -0.000000
-2.075441 0.072930 -1.627231 0.000000 0.000000 0.000000
-2.075441 0.072930 -1.627231 0.000000 0.000000 0.000000
-1.259663 0.072930 -2.316251 0.000000 0.000000 0.000000
-1.259663 0.072930 -2.316251 0.000000 0.000000 0.000000
1.454545 0.072930 0.170034 0.000000 0.000000 0.000000
1.454545 0.072930 0.170034 0.000000 0.000000 0.000000
0.946300 0.072930 0.448408 0.480381 0.000000 0.877060
0.946300 -1.460192 0.448408 0.480381 0.000000 0.877060
1.454545 -1.460192 0.170034 0.480381 0.000000 0.877060
1.454545 0.072930 0.170034 0.480381 0.000000 0.877060
-2.075441 -1.460192 -1.627231 -0.000000 -1.000000 0.000000
1.454545 -1.460192 0.170034 -0.000000 -1.000000 0.000000
1.454545 -1.460192 0.170034 0.000000 0.000000 0.000000
1.454545 -1.460192 0.170034 0.000000 0.000000 0.000000
-2.312120 -1.460192 -1.142467 -0.898616 0.000000 -0.438736
-2.312120 0.072930 -1.142466 -0.898616 0.000000 -0.438736
-2.075441 0.072930 -1.627231 -0.898616 0.000000 -0.438736
-2.075441 -1.460192 -1.627231 -0.898616 0.000000 -0.438736
3.149536 0.072930 -0.480444 0.151635 0.000000 0.988437
3.149536 -1.460192 -0.480444 0.151635 0.000000 0.988437
4.116675 -1.460192 -0.628812 0.151635 0.000000 0.988437
4.116675 0.072930 -0.628812 0.151635 0.000000 0.988437
3.149536 -1.460192 -0.480444 0.000000 0.000000 0.000000
3.149536 -1.460192 -0.480444 0.000000 0.000000 0.000000
-2.075441 -1.460192 -1.627231 -0.645258 0.000000 -0.763965
-2.075441 0.072930 -1.627231 -0.645258 0.000000 -0.763965
-1.259663 0.072930 -2.316251 -0.645258 0.000000 -0.763965
-1.259663 -1.460192 -2.316251 -0.645258 0.000000 -0.763965
3.149536 0.072930 -0.480444 0.000000 1.000000 -0.000000
-1.259663 0.072930 -2.316251 0.000000 1.000000 -0.000000
3.149536 0.072930 -0.480444 0.000000 0.000000 0.000000
3.149536 0.072930 -0.480444 0.000000 0.000000 0.000000
1.454545 0.072930 0.170034 0.358287 0.000000 0.933611
1.454545 -1.460192 0.170034 0.358287 0.000000 0.933611
3.149536 -1.460192 -0.480444 0.358287 0.000000 0.933611
3.149536 0.072930 -0.480444 0.358287 0.000000 0.933611
-1.259663 -1.460192 -2.316251 -0.000000 -1.000000 0.000000
3.149536 -1.460192 -0.480444 -0.000000 -1.000000 0.000000
-0.138667 -1.460192 -2.868068 -0.000000 -1.000000 -0.000000
-0.343055 -1.460192 -2.624784 -0.000000 -1.000000 -0.000000
-0.707521 -1.460192 -3.199024 -0.000000 -1.000000 -0.000000
-0.477988 -1.460192 -3.153140 -0.000000 -1.000000 -0.000000
3.149536 -1.460192 -0.480444 0.000000 -1.000000 0.000001
3.926250 -1.460193 -0.974688 0.000000 -1.000000 0.000001
4.610960 -1.460193 -0.840627 0.000000 -1.000000 0.000001
4.116675 -1.460192 -0.628812 0.000000 -1.000000 0.000001
3.926250 -1.460193 -0.974688 -0.000000 -1.000000 0.000000
-0.343054 0.072930 -2.624784 0.000000 0.000000 0.000000
-0.343054 0.072930 -2.624784 0.000000 0.000000 0.000000
4.116675 0.072930 -0.628812 0.000000 0.000000 0.000000
4.116675 0.072930 -0.628812 0.000000 0.000000 0.000000
-1.259663 -1.460192 -2.316251 -0.319016 0.000000 -0.947749
-1.259663 0.072930 -2.316251 -0.319016 0.000000 -0.947749
-0.343054 0.072930 -2.624784 -0.319016 0.000000 -0.947749
-0.343055 -1.460192 -2.624784 -0.319016 0.000000 -0.947749
3.926250 0.072929 -0.974688 0.000000 1.000000 -0.000000
-0.343054 0.072930 -2.624784 0.000000 1.000000 -0.000000
4.610960 0.072929 -0.840627 0.000000 0.000000 0.000000
4.610960 0.072929 -0.840627 0.000000 0.000000 0.000000
4.116675 0.072930 -0.628812 0.393886 0.000000 0.919159
4.116675 -1.460192 -0.628812 0.393886 0.000000 0.919159
4.610960 -1.460193 -0.840627 0.393886 0.000000 0.919159
4.610960 0.072929 -0.840627 0.393886 0.000000 0.919159
4.116675 -1.460192 -0.628812 0.000000 0.000000 0.000000
4.116675 -1.460192 -0.628812 0.000000 0.000000 0.000000
4.610960 -1.460193 -0.840627 0.000000 0.000000 0.000000
4.610960 -1.460193 -0.840627 0.000000 0.000000 0.000000
3.926250 0.072929 -0.974688 0.000000 0.000000 0.000000
3.926250 0.072929 -0.974688 0.000000 0.000000 0.000000
3.926250 -1.460193 -0.974688 0.192144 0.000000 -0.981367
3.926250 0.072929 -0.974688 0.192144 0.000000 -0.981367
4.610960 0.072929 -0.840627 0.192144 0.000000 -0.981367
4.610960 -1.460193 -0.840627 0.192144 0.000000 -0.981367
3.926250 0.072929 -0.974688 -0.000000 1.000000 -0.000001
3.149536 0.072930 -0.480444 -0.000000 1.000000 -0.000001
4.116675 0.072930 -0.628812 -0.000000 1.000000 -0.000001
4.610960 0.072929 -0.840627 -0.000000 1.000000 -0.000001
3.926250 -1.460193 -0.974688 0.000000 0.000000 0.000000
3.926250 -1.460193 -0.974688 0.000000 0.000000 0.000000
3.869935 -1.460193 -1.565575 0.000000 0.000000 0.000000
3.869935 -1.460193 -1.565575 0.000000 0.000000 0.000000
-0.138667 -1.460192 -2.868068 0.000000 0.000000 0.000000
-0.138667 -1.460192 -2.868068 0.309021 -0.000000 -0.951055
-0.138666 0.072930 -2.868068 0.309021 -0.000000 -0.951055
3.869935 0.072929 -1.565575 0.309021 -0.000000 -0.951055
3.869935 0.072929 -1.565575 0.000000 0.000000 0.000000
3.869935 0.072929 -1.565575 0.000000 0.000000 0.000000
3.869935 -1.460193 -1.565575 0.309021 0.000000 -0.951055
3.869935 0.072929 -1.565575 0.000000 1.000000 0.000000
-0.138666 0.072930 -2.868068 0.000000 1.000000 0.000000
3.869935 -1.460193 -1.565575 -0.000000 -1.000000 -0.000000
6.561911 -1.460193 -1.765240 -0.000000 -1.000000 -0.000000
6.531324 -1.460193 -1.217804 -0.000000 -1.000000 -0.000000
3.869935 -1.460193 -1.565575 -0.073967 0.000000 -0.997261
3.869935 0.072929 -1.565575 -0.073967 0.000000 -0.997261
6.561911 0.072929 -1.765240 -0.073967 0.000000 -0.997261
6.561911 -1.460193 -1.765240 -0.073967 0.000000 -0.997261
-0.343055 -1.460192 -2.624784 -0.844300 0.000000 0.535871
-0.343054 0.072930 -2.624784 -0.844300 0.000000 0.535871
-0.707520 0.072930 -3.199024 -0.844300 0.000000 0.535871
-0.707521 -1.460192 -3.199024 -0.844300 0.000000 0.535871
6.561911 0.072929 -1.765240 0.000000 0.000000 0.000000
6.561911 0.072929 -1.765240 0.000000 0.000000 0.000000
6.531324 0.072929 -1.217804 0.000000 0.000000 0.000000
6.531324 0.072929 -1.217804 0.000000 0.000000 0.000000
6.531324 0.072929 -1.217804 0.998443 0.000000 0.055785
6.531324 -1.460193 -1.217804 0.998443 0.000000 0.055785
6.561911 -1.460193 -1.765240 0.998443 0.000000 0.055785
6.561911 0.072929 -1.765240 0.998443 0.000000 0.055785
6.531324 -1.460193 -1.217804 0.000000 0.000000 0.000000
6.531324 -1.460193 -1.217804 0.000000 0.000000 0.000000
6.561911 -1.460193 -1.765240 0.000000 0.000000 0.000000
6.561911 -1.460193 -1.765240 0.000000 0.000000 0.000000
3.926250 0.072929 -0.974688 0.092920 0.000000 0.995674
3.926250 -1.460193 -0.974688 0.092920 0.000000 0.995674
6.531324 -1.460193 -1.217804 0.092920 0.000000 0.995674
6.531324 0.072929 -1.217804 0.092920 0.000000 0.995674
6.531324 0.072929 -1.217804 0.000000 1.000000 0.000000
6.561911 0.072929 -1.765240 0.000000 1.000000 0.000000
-0.707521 -1.460192 -3.199024 0.196023 0.000000 -0.980599
-0.707520 0.072930 -3.199024 0.196023 0.000000 -0.980599
-0.477987 0.072930 -3.153140 0.196023 0.000000 -0.980599
-0.477988 -1.460192 -3.153140 0.196023 0.000000 -0.980599
-0.707520 0.072930 -3.199024 0.000000 0.000000 0.000000
-0.707520 0.072930 -3.199024 0.000000 0.000000 0.000000
-0.477987 0.072930 -3.153140 0.000000 0.000000 0.000000
-0.477987 0.072930 -3.153140 0.000000 0.000000 0.000000
-0.138666 0.072930 -2.868068 0.000000 0.000000 0.000000
-0.138666 0.072930 -2.868068 0.000000 0.000000 0.000000
-0.343054 0.072930 -2.624784 0.000000 1.000000 0.000000
-0.138666 0.072930 -2.868068 0.000000 1.000000 0.000000
-0.477987 0.072930 -3.153140 0.000000 1.000000 0.000000
-0.707520 0.072930 -3.199024 0.000000 1.000000 0.000000
-0.138666 0.072930 -2.868068 0.643249 -0.000000 -0.765657
-0.138667 -1.460192 -2.868068 0.643249 -0.000000 -0.765657
-0.477988 -1.460192 -3.153140 0.643249 -0.000000 -0.765657
-0.477987 0.072930 -3.153140 0.643249 -0.000000 -0.765657
-0.763986 -1.460192 1.242486 0.882612 -0.000001 0.470102
-0.763985 0.072930 1.242486 0.882612 -0.000001 0.470102
-1.850578 0.072930 3.282554 0.882612 -0.000001 0.470102
-1.850578 -1.460192 3.282554 0.882612 -0.000001 0.470102
-1.850578 0.072930 3.282554 0.000000 1.000000 0.000000
-3.405739 0.072931 2.454236 0.000000 1.000000 0.000000
-3.413599 0.072931 2.795675 0.000000 1.000000 0.000000
-2.596814 0.072930 4.356925 0.000000 1.000000 0.000000
-2.319147 0.072930 0.414168 -0.882612 0.000000 -0.470102
-2.319147 -1.460191 0.414167 -0.882612 0.000000 -0.470102
-3.405739 -1.460191 2.454236 -0.882612 0.000000 -0.470102
-3.405739 0.072931 2.454236 -0.882612 0.000000 -0.470102
-3.413600 -1.460191 2.795675 0.014022 -0.999540 0.026908
-2.596815 -1.460192 4.356924 0.014022 -0.999540 0.026908
-3.687079 -1.406203 4.943662 0.014022 -0.999540 0.026908
-4.056777 -1.511169 3.224085 0.014022 -0.999540 0.026908
-2.596815 -1.460192 4.356924 -0.000001 -1.000000 -0.000000
-3.413600 -1.460191 2.795675 -0.000001 -1.000000 -0.000000
-1.850578 -1.460192 3.282554 0.821318 -0.000001 0.570471
-1.850578 0.072930 3.282554 0.821318 -0.000001 0.570471
-2.596814 0.072930 4.356925 0.821318 -0.000001 0.570471
-2.596815 -1.460192 4.356924 0.821318 -0.000001 0.570471
-3.405739 0.072931 2.454236 -0.999735 0.000000 -0.023016
-3.405739 -1.460191 2.454236 -0.999735 0.000000 -0.023016
-3.413600 -1.460191 2.795675 -0.999735 0.000000 -0.023016
-3.413599 0.072931 2.795675 -0.999735 0.000000 -0.023016
-4.056777 -1.511169 3.224085 0.036453 -0.996324 0.077529
-3.687079 -1.406203 4.943662 0.036453 -0.996324 0.077529
-4.396026 -1.376701 5.111652 0.036453 -0.996324 0.077529
-4.391534 -1.555308 3.358736 0.036453 -0.996324 0.077529
-2.596814 0.072930 4.356925 -0.014114 0.999539 -0.026875
-3.413599 0.072931 2.795675 -0.014114 0.999539 -0.026875
-4.105055 0.018942 3.141064 -0.014114 0.999539 -0.026875
-3.735357 0.123908 4.860641 -0.014114 0.999539 -0.026875
-3.413599 0.072931 2.795675 -0.499487 -0.031336 -0.865755
-3.413600 -1.460191 2.795675 -0.499487 -0.031336 -0.865755
-4.056777 -1.511169 3.224085 -0.499487 -0.031336 -0.865755
-4.105055 0.018942 3.141064 -0.499487 -0.031336 -0.865755
-2.596815 -1.460192 4.356924 0.440448 0.031258 0.897234
-2.596814 0.072930 4.356925 0.440448 0.031258 0.897234
-3.735357 0.123908 4.860641 0.440448 0.031258 0.897234
-3.687079 -1.406203 4.943662 0.440448 0.031258 0.897234
-4.391534 -1.555308 3.358736 0.135611 -0.984822 0.108328
-4.396026 -1.376701 5.111652 0.135611 -0.984822 0.108328
-4.940271 -1.424938 5.230889 0.135611 -0.984822 0.108328
-4.684969 -1.603545 3.411090 0.135611 -0.984822 0.108328
-4.105055 0.018942 3.141064 -0.262321 -0.085170 -0.961215
-4.056777 -1.511169 3.224085 -0.262321 -0.085170 -0.961215
-4.391534 -1.555308 3.358736 -0.262321 -0.085170 -0.961215
-4.461022 -0.031669 3.203312 -0.262321 -0.085170 -0.961215
-3.735357 0.123908 4.860641 -0.036564 0.996320 -0.077517
-4.105055 0.018942 3.141064 -0.036564 0.996320 -0.077517
-4.461022 -0.031669 3.203312 -0.036564 0.996320 -0.077517
-4.465514 0.146939 4.956229 -0.036564 0.996320 -0.077517
-3.687079 -1.406203 4.943662 0.182477 0.083531 0.979655
-3.735357 0.123908 4.860641 0.182477 0.083531 0.979655
-4.465514 0.146939 4.956229 0.182477 0.083531 0.979655
-4.396026 -1.376701 5.111652 0.182477 0.083531 0.979655
-4.940271 -1.424938 5.230889 -0.667908 0.049449 0.742599
-5.009759 0.098702 5.075466 -0.667908 0.049449 0.742599
-5.828631 -0.006849 4.337451 -0.667908 0.049449 0.742599
-5.772298 -1.530489 4.498110 -0.667908 0.049449 0.742599
-4.465514 0.146939 4.956229 -0.135610 0.984822 -0.108328
-4.461022 -0.031669 3.203312 -0.135610 0.984822 -0.108328
-4.754456 -0.079906 3.255666 -0.135610 0.984822 -0.108328
-5.009759 0.098702 5.075466 -0.135610 0.984822 -0.108328
-4.396026 -1.376701 5.111652 0.203558 0.108540 0.973028
-4.465514 0.146939 4.956229 0.203558 0.108540 0.973028
-5.009759 0.098702 5.075466 0.203558 0.108540 0.973028
-4.940271 -1.424938 5.230889 0.203558 0.108540 0.973028
-4.391534 -1.555308 3.358736 0.160382 -0.987030 -0.007048
-4.684969 -1.603545 3.411090 0.160382 -0.987030 -0.007048
-5.366677 -1.709096 2.705816 0.160382 -0.987030 -0.007048
-5.069908 -1.660859 2.678023 0.160382 -0.987030 -0.007048
-5.069908 -1.660859 2.678023 0.160110 -0.987093 -0.003557
-5.366677 -1.709096 2.705816 0.160110 -0.987093 -0.003557
-6.658019 -1.913212 1.222855 0.160110 -0.987093 -0.003557
-6.361250 -1.864975 1.195062 0.160110 -0.987093 -0.003557
-5.423010 -0.185457 2.545155 -0.160110 0.987093 0.003557
-5.126241 -0.137220 2.517362 -0.160110 0.987093 0.003557
-6.417583 -0.341336 1.034402 -0.160110 0.987093 0.003557
-6.714353 -0.389573 1.062195 -0.160110 0.987093 0.003557
-4.754456 -0.079906 3.255666 -0.160745 0.986987 0.004327
-4.461022 -0.031669 3.203312 -0.160745 0.986987 0.004327
-5.126241 -0.137220 2.517362 -0.160745 0.986987 0.004327
-5.423010 -0.185457 2.545155 -0.160745 0.986987 0.004327
-4.461022 -0.031669 3.203312 0.715741 -0.042751 -0.697056
-4.391534 -1.555308 3.358736 0.715741 -0.042751 -0.697056
-5.069908 -1.660859 2.678023 0.715741 -0.042751 -0.697056
-5.126241 -0.137220 2.517362 0.715741 -0.042751 -0.697056
-4.684969 -1.603545 3.411090 0.038524 -0.993692 0.105319
-4.940271 -1.424938 5.230889 0.038524 -0.993692 0.105319
-5.772298 -1.530489 4.498110 0.038524 -0.993692 0.105319
-5.366677 -1.709096 2.705816 0.038524 -0.993692 0.105319
-5.009759 0.098702 5.075466 -0.038473 0.993695 -0.105311
-4.754456 -0.079906 3.255666 -0.038473 0.993695 -0.105311
-5.423010 -0.185457 2.545155 -0.038473 0.993695 -0.105311
-5.828631 -0.006849 4.337451 -0.038473 0.993695 -0.105311
-5.828631 -0.006849 4.337451 0.000000 0.000000 0.000000
-5.828631 -0.006849 4.337451 0.000000 0.000000 0.000000
-6.653786 -0.358469 1.069952 0.000000 0.000000 0.000000
-6.653786 -0.358469 1.069952 0.000000 0.000000 0.000000
-5.126241 -0.137220 2.517362 0.000000 0.000000 0.000000
-5.126241 -0.137220 2.517362 0.000000 0.000000 0.000000
-6.417583 -0.341336 1.034402 0.000000 0.000000 0.000000
-6.417583 -0.341336 1.034402 0.000000 0.000000 0.000000
-5.069908 -1.660859 2.678023 -0.756299 0.040887 0.652947
-5.126241 -0.137220 2.517362 -0.756299 0.040887 0.652947
-6.417583 -0.341336 1.034402 -0.756299 0.040887 0.652947
-6.361250 -1.864975 1.195062 -0.756299 0.040887 0.652947
-5.828631 -0.006849 4.337451 -0.000752 0.993265 -0.115863
-5.423010 -0.185457 2.545155 -0.000752 0.993265 -0.115863
-6.714353 -0.389573 1.062195 -0.000752 0.993265 -0.115863
-6.653786 -0.358469 1.069952 -0.000752 0.993265 -0.115863
-6.653786 -0.358469 1.069952 -0.175210 0.096832 0.979758
-6.714353 -0.389573 1.062195 -0.175210 0.096832 0.979758
-6.658019 -1.913212 1.222855 -0.175210 0.096832 0.979758
-6.597452 -1.882108 1.230612 -0.175210 0.096832 0.979758
-6.417583 -0.341336 1.034402 -0.075398 -0.107322 -0.991361
-6.361250 -1.864975 1.195062 -0.075398 -0.107322 -0.991361
-6.658019 -1.913212 1.222855 -0.075398 -0.107322 -0.991361
-6.714353 -0.389573 1.062195 -0.075398 -0.107322 -0.991361
-6.597452 -1.882108 1.230612 0.000000 0.000000 0.000000
-6.597452 -1.882108 1.230612 0.000000 0.000000 0.000000
-6.361250 -1.864975 1.195062 0.000000 0.000000 0.000000
-6.361250 -1.864975 1.195062 0.000000 0.000000 0.000000
-6.658019 -1.913212 1.222855 0.000000 0.000000 0.000000
-6.658019 -1.913212 1.222855 0.000000 0.000000 0.000000
-5.772298 -1.530489 4.498110 -0.000752 0.993265 -0.115862
-5.366677 -1.709096 2.705816 -0.000752 0.993265 -0.115862
-6.658019 -1.913212 1.222855 -0.000752 0.993265 -0.115862
-6.597452 -1.882108 1.230612 -0.000752 0.993265 -0.115862
-5.772298 -1.530489 4.498110 -0.969260 -0.009914 0.245838
-5.828631 -0.006849 4.337451 -0.969260 -0.009914 0.245838
-6.653786 -0.358469 1.069952 -0.969260 -0.009914 0.245838
-6.597452 -1.882108 1.230612 -0.969260 -0.009914 0.245838
4 0 1 2 3
4 4 5 6 7
4 8 9 10 11
4 12 13 14 15
4 16 17 18 19
4 20 21 22 23
4 24 25 26 27
4 12 15 28 29
4 22 21 30 31
4 32 33 34 35
4 36 37 38 39
4 40 41 42 43
4 31 30 44 45
4 46 47 48 49
4 2 3 50 51
4 52 53 54 55
4 29 28 56 57
4 39 38 47 46
4 42 43 58 59
4 60 61 62 63
4 64 65 66 67
4 59 58 68 69
4 70 71 72 73
4 45 44 74 75
4 51 50 76 77
4 78 79 80 81
4 57 56 82 83
4 84 85 86 87
4 88 89 90 91
4 83 82 85 92
4 49 48 93 94
4 77 76 95 96
4 97 98 99 100
4 75 74 101 102
4 96 95 103 104
4 105 106 107 108
4 109 110 111 112
4 113 114 104 103
4 115 116 117 118
4 69 68 110 109
4 119 120 121 122
4 123 124 112 111
3 125 126 127
3 128 129 130
3 131 132 125
3 128 130 133
4 102 101 134 135
4 92 136 137 138
4 139 140 141 142
4 92 85 84 136
4 143 144 145 146
4 132 131 147 148
4 149 150 148 147
4 151 152 153 154
4 155 156 157 158
4 114 113 150 149
4 159 160 161 162
4 126 125 158 157
4 134 101 163 164
4 124 123 156 155
4 165 166 167 168
4 169 170 171 172
4 173 174 172 171
4 175 176 177 178
4 179 180 181 182
4 94 93 170 169
4 183 184 185 186
4 187 188 189 190
4 20 23 188 187
4 191 192 193 194
4 195 196 197 198
4 7 6 199 200
4 201 202 203 204
4 205 206 207 208
4 209 210 211 212
4 213 214 215 216
4 217 218 219 220
4 221 222 223 224
4 225 226 227 228
4 229 230 231 232
4 233 234 235 236
4 237 238 239 240
4 241 242 243 244
4 245 246 247 248
4 249 250 251 252
4 253 254 255 256
4 257 258 259 260
4 261 262 263 264
4 265 266 267 268
4 269 270 271 272
4 273 274 275 276
4 277 278 279 280
4 281 282 283 284
4 285 286 287 288
4 289 290 291 292
4 293 294 295 296
4 297 298 299 300
4 301 302 303 304
4 283 305 306 284
4 287 307 308 288
4 309 307 308 310
4 309 305 306 310
4 311 312 313 314
4 315 316 317 318
